<?xml version="1.0" encoding="UTF-8" standalone="no"?>
<!DOCTYPE svg PUBLIC "-//W3C//DTD SVG 20010904//EN"
              "http://www.w3.org/TR/2001/REC-SVG-20010904/DTD/svg10.dtd">

<svg xmlns="http://www.w3.org/2000/svg"
     width="14.9in" height="14.8in"
     viewBox="0 0 1341 1332">
  <path id="Vetor importado"
        fill="none" stroke="black" stroke-width="1"
        d="M 650.62,895.75
           C 639.12,899.38 630.75,906.75 625.88,917.62
             622.25,925.62 622.25,939.88 625.88,947.87
             629.38,955.75 636.75,963.50 644.25,967.50
             644.25,967.50 650.62,970.88 650.62,970.88
             650.62,970.88 821.50,971.25 821.50,971.25
             990.25,971.50 992.38,971.50 999.13,969.00
             1008.38,965.50 1015.38,959.12 1019.88,950.00
             1023.25,943.50 1023.75,941.00 1023.75,932.75
             1023.75,924.50 1023.25,922.00 1020.00,915.50
             1015.62,907.00 1009.75,901.12 1001.38,897.25
             995.62,894.62 995.62,894.62 825.62,894.38
             691.00,894.25 654.62,894.50 650.62,895.75 Z
           M 653.00,758.88
           C 641.25,761.75 631.75,769.62 626.00,781.38
             623.75,785.88 623.12,789.25 623.12,797.12
             623.25,806.12 623.62,807.87 627.38,815.00
             632.12,823.75 636.00,827.50 645.50,832.50
             645.50,832.50 651.88,835.88 651.88,835.88
             651.88,835.88 823.12,835.88 823.12,835.88
             823.12,835.88 994.38,835.88 994.38,835.88
             994.38,835.88 1001.00,832.87 1001.00,832.87
             1009.25,829.12 1019.00,818.75 1021.75,810.75
             1024.62,802.38 1024.38,788.50 1021.25,781.62
             1017.00,772.38 1011.75,766.88 1002.75,762.50
             1002.75,762.50 994.38,758.38 994.38,758.38
             994.38,758.38 825.62,758.12 825.62,758.12
             732.88,758.12 655.12,758.38 653.00,758.88 Z
           M 784.38,254.75
           C 770.88,256.75 747.63,262.37 737.50,266.12
             666.62,292.62 615.88,351.25 599.75,425.62
             596.00,443.12 595.62,486.75 599.25,505.88
             613.62,583.00 668.38,646.00 742.50,670.62
             768.38,679.25 779.38,680.88 811.88,680.75
             835.13,680.75 841.25,680.38 851.25,678.12
             899.75,667.25 940.38,643.75 970.75,609.00
             995.50,580.62 1012.00,547.50 1020.25,509.87
             1022.75,498.62 1023.12,493.62 1023.00,467.75
             1023.00,442.12 1022.63,436.75 1020.25,425.62
             1012.12,388.62 995.62,355.12 971.25,326.87
             942.12,292.87 894.88,265.75 849.38,257.00
             839.75,255.12 793.00,253.50 784.38,254.75 Z
           M 841.25,335.12
           C 861.75,340.50 874.12,346.25 889.75,357.37
             930.75,386.50 952.88,440.12 944.38,489.75
             934.88,545.00 895.38,586.88 840.13,600.50
             827.12,603.75 796.62,604.38 784.38,601.62
             730.50,589.62 691.75,552.75 677.88,500.50
             675.12,490.00 674.62,485.62 674.62,468.38
             674.50,451.62 674.88,446.50 677.25,437.37
             683.75,411.50 693.75,393.12 711.75,374.37
             733.62,351.50 756.12,339.25 787.75,333.25
             800.62,330.88 828.88,331.75 841.25,335.12 Z
           M 270.62,29.00
           C 237.38,32.38 207.88,47.00 183.75,72.25
             168.62,88.12 159.25,103.62 152.50,124.00
             146.38,141.87 145.00,155.25 145.00,194.25
             145.00,194.25 145.00,229.00 145.00,229.00
             145.00,229.00 130.38,229.00 130.38,229.00
             105.50,229.12 93.75,231.50 75.88,240.37
             50.50,252.87 30.75,277.00 23.00,305.25
             19.75,316.75 19.75,345.12 23.00,356.50
             34.25,396.12 66.50,425.12 106.25,431.50
             110.75,432.12 121.25,432.75 129.75,432.75
             129.75,432.75 145.00,432.75 145.00,432.75
             145.00,432.75 145.00,443.88 145.00,443.88
             145.00,443.88 145.00,455.00 145.00,455.00
             145.00,455.00 124.13,455.50 124.13,455.50
             104.88,456.00 102.12,456.38 91.25,460.00
             18.12,484.12 -4.00,574.87 50.12,628.88
             70.38,649.25 91.12,657.37 125.38,658.62
             125.38,658.62 145.00,659.38 145.00,659.38
             145.00,659.38 145.00,670.25 145.00,670.25
             145.00,670.25 145.00,681.12 145.00,681.12
             145.00,681.12 123.50,681.88 123.50,681.88
             106.00,682.37 100.12,683.00 93.12,685.25
             65.50,694.00 43.12,712.87 30.62,738.38
             23.62,752.38 21.25,761.25 20.38,776.75
             18.50,807.75 29.38,835.00 52.25,856.62
             73.12,876.38 92.12,883.75 125.38,884.88
             125.38,884.88 145.00,885.62 145.00,885.62
             145.00,885.62 145.00,896.62 145.00,896.62
             145.00,896.62 145.00,907.75 145.00,907.75
             145.00,907.75 126.63,907.75 126.63,907.75
             106.25,907.75 94.12,909.88 80.62,915.88
             50.62,929.25 27.75,958.12 21.62,990.75
             19.38,1002.75 20.00,1023.00 23.00,1034.62
             24.12,1038.75 27.88,1048.00 31.38,1055.25
             37.00,1066.50 39.38,1069.75 49.25,1079.75
             71.62,1102.12 95.75,1111.50 132.00,1111.50
             132.00,1111.50 144.75,1111.50 144.75,1111.50
             144.75,1111.50 145.38,1151.25 145.38,1151.25
             146.00,1192.62 146.63,1198.00 152.62,1216.50
             167.00,1260.00 203.62,1294.50 249.50,1307.38
             249.50,1307.38 261.88,1310.88 261.88,1310.88
             261.88,1310.88 668.75,1311.25 668.75,1311.25
             971.12,1311.50 1078.00,1311.25 1085.00,1310.25
             1139.25,1301.88 1184.25,1260.88 1198.62,1206.75
             1202.63,1192.00 1203.75,1174.12 1203.75,1126.75
             1203.75,1126.75 1203.75,1085.25 1203.75,1085.25
             1203.75,1085.25 1212.88,1085.25 1212.88,1085.25
             1231.00,1085.25 1254.75,1076.38 1268.88,1064.25
             1283.75,1051.62 1295.00,1034.25 1300.25,1015.88
             1300.25,1015.88 1303.12,1005.88 1303.12,1005.88
             1303.12,1005.88 1303.12,858.38 1303.12,858.38
             1303.12,858.38 1303.12,710.88 1303.12,710.88
             1303.12,710.88 1300.25,700.88 1300.25,700.88
             1289.00,661.62 1255.25,634.00 1216.00,631.88
             1216.00,631.88 1203.75,631.12 1203.75,631.12
             1203.75,631.12 1203.75,620.25 1203.75,620.25
             1203.75,620.25 1203.75,609.38 1203.75,609.38
             1203.75,609.38 1214.13,608.50 1214.13,608.50
             1257.50,604.87 1290.25,577.25 1301.50,534.62
             1302.75,529.62 1303.12,499.25 1303.12,380.88
             1303.12,241.75 1303.00,232.87 1300.88,225.37
             1289.13,184.12 1256.12,156.87 1214.75,154.37
             1214.75,154.37 1202.50,153.62 1202.50,153.62
             1202.50,153.62 1201.75,149.12 1201.75,149.12
             1194.00,102.00 1167.25,64.50 1126.75,43.75
             1114.88,37.62 1100.25,32.50 1088.12,30.00
             1082.38,28.87 987.63,28.50 680.62,28.25
             460.62,28.12 276.13,28.50 270.62,29.00 Z
           M 1081.50,109.00
           C 1097.00,113.75 1111.25,125.75 1118.12,139.62
             1125.50,154.75 1125.00,113.75 1125.00,670.25
             1125.00,1123.75 1124.75,1180.50 1123.12,1187.12
             1117.12,1209.88 1099.00,1227.38 1076.38,1232.25
             1069.38,1233.62 1012.38,1234.00 708.50,1234.00
             708.50,1234.00 348.75,1234.00 348.75,1234.00
             348.75,1234.00 348.75,1172.88 348.75,1172.88
             348.75,1172.88 348.75,1111.88 348.75,1111.88
             348.75,1111.88 380.38,1111.12 380.38,1111.12
             407.12,1110.62 413.38,1110.12 421.88,1107.88
             472.00,1094.50 505.00,1047.62 498.88,998.12
             493.50,954.62 463.25,920.37 420.88,910.25
             412.12,908.12 406.13,907.75 379.75,907.75
             379.75,907.75 348.75,907.75 348.75,907.75
             348.75,907.75 348.75,896.62 348.75,896.62
             348.75,896.62 348.75,885.62 348.75,885.62
             348.75,885.62 381.00,884.88 381.00,884.88
             408.38,884.38 414.50,883.88 422.88,881.62
             459.75,871.50 485.88,845.50 496.50,808.12
             500.25,794.88 500.12,772.87 496.38,758.38
             487.62,725.50 463.12,698.12 432.50,687.50
             417.75,682.37 409.75,681.50 378.63,681.50
             378.63,681.50 348.75,681.50 348.75,681.50
             348.75,681.50 348.75,670.38 348.75,670.38
             348.75,670.38 348.75,659.25 348.75,659.25
             348.75,659.25 381.00,658.62 381.00,658.62
             408.88,658.12 414.50,657.75 423.12,655.38
             459.62,645.50 485.88,619.12 496.50,581.75
             500.25,568.62 500.12,546.50 496.38,532.12
             488.38,501.87 467.88,477.62 439.62,464.62
             422.62,456.87 417.62,456.12 381.63,455.62
             381.63,455.62 348.75,455.12 348.75,455.12
             348.75,455.12 348.75,444.00 348.75,444.00
             348.75,444.00 348.75,433.00 348.75,433.00
             348.75,433.00 381.63,432.37 381.63,432.37
             417.62,431.87 422.75,431.00 439.62,423.38
             450.88,418.25 458.63,413.00 468.00,404.12
             481.38,391.38 490.12,377.00 495.75,358.12
             498.62,348.62 499.12,344.87 499.12,330.88
             499.12,316.87 498.62,313.12 495.75,303.62
             487.00,274.25 468.50,252.25 441.88,239.37
             424.25,230.88 413.00,229.00 377.88,229.00
             377.88,229.00 348.75,229.00 348.75,229.00
             348.75,229.00 348.75,167.75 348.75,167.75
             348.75,167.75 348.75,106.50 348.75,106.50
             348.75,106.50 711.12,106.50 711.12,106.50
             1069.00,106.50 1073.62,106.50 1081.50,109.00 Z
           M 271.25,207.12
           C 271.25,207.12 271.25,306.50 271.25,306.50
             271.25,306.50 333.75,306.50 333.75,306.50
             374.38,306.50 398.38,307.00 402.50,307.87
             409.88,309.50 417.00,315.00 419.50,321.12
             421.75,326.38 421.75,335.50 419.50,340.75
             417.12,346.50 409.38,352.37 402.25,354.00
             398.50,354.75 372.38,355.25 333.75,355.25
             333.75,355.25 271.25,355.25 271.25,355.25
             271.25,355.25 271.25,444.00 271.25,444.00
             271.25,444.00 271.25,532.75 271.25,532.75
             271.25,532.75 333.75,532.75 333.75,532.75
             374.62,532.75 398.38,533.25 402.62,534.12
             410.38,535.75 417.88,542.12 420.12,548.62
             422.38,555.62 421.00,565.50 416.88,570.88
             409.75,580.38 411.25,580.25 337.25,580.25
             337.25,580.25 271.25,580.25 271.25,580.25
             271.25,580.25 271.25,669.62 271.25,669.62
             271.25,669.62 271.25,759.00 271.25,759.00
             271.25,759.00 335.38,759.00 335.38,759.00
             376.63,759.00 401.13,759.50 404.13,760.37
             410.38,762.12 418.25,769.25 420.12,774.88
             422.38,781.88 421.00,791.75 416.88,797.12
             409.75,806.62 411.25,806.50 337.25,806.50
             337.25,806.50 271.25,806.50 271.25,806.50
             271.25,806.50 271.25,895.88 271.25,895.88
             271.25,895.88 271.25,985.12 271.25,985.12
             271.25,985.12 337.88,985.50 337.88,985.50
             337.88,985.50 404.38,985.88 404.38,985.88
             404.38,985.88 410.38,989.38 410.38,989.38
             425.88,998.50 424.75,1022.12 408.50,1030.12
             403.00,1032.75 401.88,1032.75 337.12,1032.75
             337.12,1032.75 271.25,1032.75 271.25,1032.75
             271.25,1032.75 271.25,1132.12 271.25,1132.12
             271.25,1226.50 271.13,1231.50 269.00,1231.50
             267.75,1231.50 262.75,1229.50 257.62,1227.12
             247.12,1222.00 236.25,1211.88 231.00,1202.00
             223.88,1188.62 223.75,1187.62 223.75,1106.88
             223.75,1106.88 223.75,1032.75 223.75,1032.75
             223.75,1032.75 170.38,1032.75 170.38,1032.75
             121.12,1032.75 116.50,1032.50 111.88,1030.38
             98.12,1024.12 93.75,1007.62 102.62,995.37
             109.62,985.62 107.62,985.88 169.13,985.50
             169.13,985.50 223.75,985.12 223.75,985.12
             223.75,985.12 223.50,896.12 223.50,896.12
             223.50,896.12 223.12,807.12 223.12,807.12
             223.12,807.12 168.12,806.50 168.12,806.50
             128.38,806.00 112.38,805.50 110.50,804.38
             105.88,801.75 100.12,794.25 98.75,788.88
             96.88,782.00 98.12,775.12 102.62,769.12
             109.62,759.38 107.62,759.62 169.13,759.25
             169.13,759.25 223.75,758.88 223.75,758.88
             223.75,758.88 223.50,669.87 223.50,669.87
             223.50,669.87 223.12,580.88 223.12,580.88
             223.12,580.88 168.12,580.25 168.12,580.25
             128.38,579.75 112.38,579.25 110.50,578.12
             105.88,575.37 100.12,567.87 98.62,562.50
             95.88,552.37 100.25,542.37 109.88,536.75
             109.88,536.75 115.62,533.38 115.62,533.38
             115.62,533.38 169.75,533.00 169.75,533.00
             169.75,533.00 223.75,532.62 223.75,532.62
             223.75,532.62 223.75,444.00 223.75,444.00
             223.75,444.00 223.75,355.37 223.75,355.37
             223.75,355.37 169.62,355.00 169.62,355.00
             169.62,355.00 115.38,354.62 115.38,354.62
             115.38,354.62 109.38,350.88 109.38,350.88
             94.12,341.38 94.38,319.62 109.62,310.62
             109.62,310.62 115.62,307.12 115.62,307.12
             115.62,307.12 169.75,306.75 169.75,306.75
             169.75,306.75 223.75,306.38 223.75,306.38
             223.75,306.38 223.75,232.37 223.75,232.37
             223.75,152.50 223.75,152.50 230.62,139.00
             237.62,125.37 258.00,109.25 270.38,107.87
             270.88,107.75 271.25,152.50 271.25,207.12 Z
           M 1215.50,233.25
           C 1217.75,234.12 1220.75,236.50 1222.25,238.38
             1225.00,241.87 1225.00,242.00 1225.00,308.62
             1225.00,308.62 1225.00,375.37 1225.00,375.37
             1225.00,375.37 1229.38,379.12 1229.38,379.12
             1237.12,386.00 1237.50,395.62 1230.13,403.25
             1230.13,403.25 1226.38,407.12 1226.38,407.12
             1226.38,407.12 1226.00,462.75 1226.00,462.75
             1225.62,513.12 1225.38,518.75 1223.38,522.37
             1220.62,527.37 1215.38,530.25 1208.88,530.25
             1208.88,530.25 1203.88,530.25 1203.88,530.25
             1203.88,530.25 1203.25,461.75 1203.25,461.75
             1203.00,424.12 1202.75,392.50 1202.75,391.50
             1202.75,390.50 1203.00,354.00 1203.25,310.50
             1203.25,310.50 1203.88,231.50 1203.88,231.50
             1203.88,231.50 1207.63,231.50 1207.63,231.50
             1209.62,231.50 1213.12,232.25 1215.50,233.25 Z
           M 1216.75,710.88
           C 1219.00,712.00 1221.88,714.62 1223.12,716.88
             1225.38,720.50 1225.62,723.75 1226.00,756.25
             1226.38,789.88 1226.50,791.62 1228.88,792.87
             1232.88,795.00 1236.25,801.62 1236.25,807.50
             1236.25,814.00 1233.75,819.12 1229.13,822.50
             1229.13,822.50 1225.62,825.00 1225.62,825.00
             1225.62,825.00 1225.00,912.00 1225.00,912.00
             1225.00,912.00 1224.38,999.00 1224.38,999.00
             1224.38,999.00 1220.38,1002.87 1220.38,1002.87
             1217.38,1006.00 1215.13,1007.00 1210.13,1007.50
             1210.13,1007.50 1203.75,1008.12 1203.75,1008.12
             1203.75,1008.12 1203.25,911.38 1203.25,911.38
             1202.88,858.12 1202.63,811.50 1202.63,807.75
             1202.63,804.00 1202.88,780.25 1203.25,754.88
             1203.25,754.88 1203.75,709.00 1203.75,709.00
             1203.75,709.00 1208.25,709.00 1208.25,709.00
             1210.75,709.00 1214.50,709.88 1216.75,710.88 Z" />
</svg>
