<?xml version="1.0" encoding="UTF-8" standalone="no"?>
<!DOCTYPE svg PUBLIC "-//W3C//DTD SVG 20010904//EN"
              "http://www.w3.org/TR/2001/REC-SVG-20010904/DTD/svg10.dtd">

<svg xmlns="http://www.w3.org/2000/svg"
     width="14.5667in" height="15in"
     viewBox="0 0 1311 1350">
  <path id="Vetor importado"
        fill="none" stroke="black" stroke-width="1"
        d="M 740.12,867.62
           C 730.75,869.12 723.62,872.25 720.12,876.37
             720.12,876.37 717.00,880.25 717.00,880.25
             717.00,880.25 717.00,997.75 717.00,997.75
             717.00,997.75 717.00,1115.38 717.00,1115.38
             717.00,1115.38 721.88,1120.00 721.88,1120.00
             730.38,1128.00 731.00,1128.12 806.38,1128.12
             856.75,1128.12 875.12,1127.75 879.00,1126.62
             885.62,1124.50 892.25,1120.12 894.12,1116.25
             895.38,1113.75 895.75,1087.50 895.75,997.50
             895.75,886.50 895.62,881.75 893.38,878.00
             890.62,873.38 882.75,869.50 872.62,867.62
             864.00,866.00 749.75,866.00 740.12,867.62 Z
           M 225.75,776.75
           C 214.88,779.88 207.38,785.62 204.62,792.88
             203.63,795.38 203.25,846.75 203.25,957.62
             203.25,1131.38 203.00,1123.50 209.62,1130.00
             211.25,1131.50 215.75,1134.25 219.50,1136.12
             219.50,1136.12 226.38,1139.38 226.38,1139.38
             226.38,1139.38 292.00,1139.38 292.00,1139.38
             353.63,1139.38 358.00,1139.25 363.88,1137.00
             372.12,1133.88 377.62,1129.62 380.00,1124.38
             381.88,1120.62 382.00,1104.38 381.75,955.75
             381.75,955.75 381.38,791.37 381.38,791.37
             381.38,791.37 376.50,786.37 376.50,786.37
             373.88,783.62 368.75,780.12 365.25,778.50
             358.88,775.62 358.88,775.62 295.12,775.38
             246.75,775.25 230.00,775.50 225.75,776.75 Z
           M 484.75,606.12
           C 476.62,609.00 470.12,614.88 466.25,623.12
             466.25,623.12 463.25,629.38 463.25,629.38
             463.25,629.38 463.25,868.50 463.25,868.50
             463.25,1070.88 463.50,1108.25 465.00,1111.75
             467.38,1117.62 475.25,1125.88 481.25,1129.12
             486.38,1131.88 487.00,1131.88 552.00,1131.88
             616.88,1131.88 617.62,1131.88 622.62,1129.12
             629.38,1125.62 637.50,1116.62 639.62,1110.50
             641.12,1106.38 641.38,1067.00 641.38,867.50
             641.38,867.50 641.38,629.38 641.38,629.38
             641.38,629.38 638.75,623.75 638.75,623.75
             635.50,616.62 629.25,610.50 622.00,607.00
             616.50,604.50 614.62,604.38 553.88,604.12
             495.75,603.75 490.88,604.00 484.75,606.12 Z
           M 181.50,452.00
           C 172.88,454.75 162.00,465.75 158.75,475.00
             151.25,497.00 163.12,519.75 185.00,525.62
             191.88,527.38 211.38,527.62 383.88,527.25
             383.88,527.25 575.12,526.88 575.12,526.88
             575.12,526.88 581.75,523.87 581.75,523.87
             590.38,520.00 599.88,509.62 602.62,501.12
             604.25,496.50 604.62,492.12 604.25,485.75
             603.25,471.25 596.25,460.50 582.88,453.50
             582.88,453.50 577.62,450.62 577.62,450.62
             577.62,450.62 382.62,450.37 382.62,450.37
             211.62,450.12 186.88,450.37 181.50,452.00 Z
           M 197.38,285.00
           C 179.38,288.62 166.62,304.38 166.38,323.12
             166.38,330.62 167.00,333.12 170.50,340.25
             175.12,349.62 179.50,354.00 189.50,358.62
             189.50,358.62 196.38,361.88 196.38,361.88
             196.38,361.88 516.38,361.88 516.38,361.88
             821.50,361.88 836.62,361.75 842.88,359.62
             851.88,356.50 860.38,348.62 864.63,339.38
             874.00,319.88 865.00,296.50 844.63,287.00
             844.63,287.00 838.88,284.38 838.88,284.38
             838.88,284.38 520.75,284.25 520.75,284.25
             345.75,284.12 200.25,284.50 197.38,285.00 Z
           M 957.25,282.62
           C 951.12,285.75 944.38,293.00 940.62,300.87
             934.12,314.25 934.50,290.50 934.50,708.12
             934.50,1128.50 934.12,1103.25 940.75,1116.38
             944.38,1123.25 951.50,1131.00 957.13,1133.88
             961.62,1136.12 965.12,1136.25 1023.25,1136.25
             1081.38,1136.25 1084.88,1136.12 1089.38,1133.88
             1099.12,1128.75 1107.50,1116.12 1110.62,1101.25
             1111.75,1096.00 1112.00,1000.50 1111.75,704.38
             1111.75,704.38 1111.38,314.38 1111.38,314.38
             1111.38,314.38 1108.50,306.88 1108.50,306.88
             1104.88,297.12 1098.38,288.37 1091.62,284.12
             1091.62,284.12 1086.38,280.62 1086.38,280.62
             1086.38,280.62 1024.50,280.25 1024.50,280.25
             963.50,280.00 962.50,280.00 957.25,282.62 Z
           M 54.12,49.25
           C 43.75,53.00 35.88,60.75 31.38,71.50
             29.75,75.75 29.50,137.62 29.50,675.25
             29.50,675.25 29.50,1274.38 29.50,1274.38
             29.50,1274.38 32.50,1280.75 32.50,1280.75
             36.12,1288.62 43.25,1295.75 51.38,1299.50
             51.38,1299.50 57.62,1302.50 57.62,1302.50
             57.62,1302.50 657.00,1302.50 657.00,1302.50
             1245.50,1302.50 1256.50,1302.38 1261.62,1300.00
             1269.25,1296.62 1278.75,1287.12 1281.88,1280.00
             1281.88,1280.00 1284.50,1273.88 1284.50,1273.88
             1284.50,1273.88 1284.25,673.50 1284.25,673.50
             1284.25,673.50 1283.88,73.12 1283.88,73.12
             1283.88,73.12 1280.50,67.37 1280.50,67.37
             1276.38,60.25 1270.38,54.38 1263.88,50.88
             1263.88,50.88 1258.88,48.12 1258.88,48.12
             1258.88,48.12 658.88,47.87 658.88,47.87
             156.00,47.62 58.12,47.87 54.12,49.25 Z
           M 1207.00,675.00
           C 1207.00,675.00 1207.00,1225.00 1207.00,1225.00
             1207.00,1225.00 657.00,1225.00 657.00,1225.00
             657.00,1225.00 107.00,1225.00 107.00,1225.00
             107.00,1225.00 107.00,675.00 107.00,675.00
             107.00,675.00 107.00,125.00 107.00,125.00
             107.00,125.00 657.00,125.00 657.00,125.00
             657.00,125.00 1207.00,125.00 1207.00,125.00
             1207.00,125.00 1207.00,675.00 1207.00,675.00 Z" />
</svg>
