<?xml version="1.0" encoding="UTF-8" standalone="no"?>
<!DOCTYPE svg PUBLIC "-//W3C//DTD SVG 20010904//EN"
              "http://www.w3.org/TR/2001/REC-SVG-20010904/DTD/svg10.dtd">

<svg xmlns="http://www.w3.org/2000/svg"
     width="13.2333in" height="14.7in"
     viewBox="0 0 1191 1323">
  <path id="Vetor importado"
        fill="none" stroke="black" stroke-width="1"
        d="M 580.62,989.25
           C 553.75,992.00 529.12,1003.75 511.38,1022.62
             490.12,1045.12 481.25,1068.12 481.38,1100.50
             481.38,1146.25 500.50,1178.12 539.62,1197.62
             556.50,1206.12 572.75,1209.62 594.00,1209.62
             625.12,1209.50 652.00,1198.50 673.25,1177.38
             693.88,1156.75 703.12,1132.75 703.00,1099.88
             703.00,1067.00 693.50,1043.12 671.75,1020.62
             648.62,996.87 616.25,985.75 580.62,989.25 Z
           M 574.50,88.00
           C 537.38,90.62 495.75,98.87 463.75,110.00
             425.00,123.50 384.25,146.12 350.00,173.12
             332.63,186.87 304.25,215.62 292.00,232.12
             254.00,282.88 231.38,343.75 231.50,395.12
             231.62,415.62 238.62,434.62 252.63,452.00
             271.12,475.00 294.50,487.25 323.00,488.87
             360.00,491.00 387.50,477.25 407.25,446.75
             414.75,435.00 418.62,426.25 427.00,402.12
             449.25,337.50 478.50,289.75 508.75,269.00
             549.25,241.12 627.75,234.88 679.75,255.50
             718.00,270.75 749.88,303.12 762.38,339.88
             766.75,352.75 769.00,367.75 769.00,383.87
             769.00,406.75 764.38,424.25 753.12,443.62
             738.38,469.12 720.88,487.88 663.38,539.12
             601.50,594.25 570.88,624.00 552.38,646.75
             537.88,664.50 521.88,692.25 512.12,716.25
             495.50,757.00 489.38,820.75 498.38,856.25
             501.62,868.62 509.25,883.00 517.25,891.62
             534.62,910.50 558.50,920.50 586.38,920.50
             625.25,920.50 652.38,903.12 666.00,869.50
             667.62,865.38 672.38,847.50 676.63,829.75
             684.88,794.50 689.25,779.75 695.38,767.75
             700.75,757.12 710.12,743.38 718.88,733.25
             728.38,722.38 755.62,695.62 774.13,679.12
             857.62,604.12 895.38,568.25 910.62,549.25
             932.25,522.38 953.75,485.00 961.38,461.12
             970.38,433.25 973.25,409.88 972.38,375.00
             971.50,340.87 966.88,316.62 955.75,288.00
             928.75,218.75 877.12,164.25 804.62,128.62
             762.25,107.75 719.62,95.75 667.75,89.88
             647.38,87.62 595.38,86.50 574.50,88.00 Z" />
</svg>
