<?xml version="1.0" encoding="UTF-8" standalone="no"?>
<!DOCTYPE svg PUBLIC "-//W3C//DTD SVG 20010904//EN"
              "http://www.w3.org/TR/2001/REC-SVG-20010904/DTD/svg10.dtd">

<svg xmlns="http://www.w3.org/2000/svg"
     width="15.3333in" height="14.9667in"
     viewBox="0 0 1380 1347">
  <path id="Vetor importado"
        fill="none" stroke="black" stroke-width="1"
        d="M 659.62,392.62
           C 626.75,396.88 597.00,405.87 568.12,420.25
             511.50,448.37 468.50,491.38 441.25,547.00
             422.00,586.12 413.62,619.50 412.13,662.62
             409.75,730.87 430.62,794.25 473.12,847.62
             518.62,904.88 585.00,942.12 657.75,951.25
             710.50,958.00 765.75,948.88 814.00,925.75
             872.75,897.50 918.38,851.88 946.75,793.00
             965.50,754.00 974.25,715.38 974.25,671.75
             974.12,539.88 881.38,425.00 752.38,397.00
             724.25,391.00 686.75,389.25 659.62,392.62 Z
           M 726.88,429.00
           C 763.38,434.00 796.62,446.38 826.12,465.87
             844.12,477.62 854.75,486.50 869.25,501.50
             902.50,536.00 922.75,574.50 933.75,624.50
             937.12,639.25 937.25,641.75 937.25,672.00
             937.25,702.00 937.12,704.88 933.88,719.88
             923.13,770.38 899.50,813.37 863.50,848.37
             825.63,885.00 777.38,908.37 725.12,915.25
             702.38,918.25 665.25,917.12 644.25,912.62
             605.88,904.62 569.38,887.62 540.50,864.38
             490.38,824.00 458.62,768.37 449.88,705.00
             447.00,684.88 447.88,647.50 451.50,626.88
             459.75,581.00 482.38,537.12 515.50,502.75
             554.75,462.12 601.75,437.62 657.62,429.00
             673.12,426.50 709.62,426.50 726.88,429.00 Z
           M 618.25,32.00
           C 596.00,37.88 576.75,53.50 566.75,73.50
             561.75,83.75 560.88,87.12 548.25,150.25
             541.00,186.62 535.00,216.50 534.75,216.75
             534.62,217.00 529.50,219.00 523.50,221.25
             517.38,223.50 505.75,228.37 497.75,232.00
             497.75,232.00 483.12,238.50 483.12,238.50
             483.12,238.50 429.00,202.50 429.00,202.50
             399.25,182.75 371.50,165.00 367.25,163.00
             345.50,152.75 319.75,153.62 296.63,165.12
             288.38,169.25 283.75,173.37 253.75,203.12
             191.12,265.25 189.63,267.00 183.38,280.62
             173.88,301.88 174.75,331.25 185.62,350.50
             187.75,354.25 205.25,381.00 224.50,409.87
             224.50,409.87 259.50,462.25 259.50,462.25
             259.50,462.25 253.88,474.38 253.88,474.38
             250.88,481.00 246.00,492.62 243.12,500.25
             243.12,500.25 237.75,514.00 237.75,514.00
             237.75,514.00 182.00,525.00 182.00,525.00
             111.50,538.88 103.88,540.75 92.75,546.62
             75.75,555.37 61.75,572.25 53.88,592.87
             51.25,600.00 51.12,601.88 50.75,667.12
             50.38,743.12 50.50,745.12 59.38,763.25
             68.75,782.12 88.00,798.12 108.00,803.75
             111.75,804.75 142.13,811.00 175.50,817.75
             208.88,824.38 236.75,830.50 237.50,831.25
             238.25,832.00 240.50,836.88 242.38,842.00
             244.25,847.12 249.00,858.25 252.75,866.75
             252.75,866.75 259.63,882.25 259.63,882.25
             259.63,882.25 224.63,934.25 224.63,934.25
             187.50,989.38 181.62,999.50 178.50,1013.00
             175.75,1024.62 176.62,1044.75 180.38,1055.75
             186.38,1073.12 190.75,1078.75 234.12,1122.38
             256.50,1145.00 278.62,1166.50 283.12,1170.25
             306.63,1189.50 339.25,1193.88 367.25,1181.50
             370.75,1179.88 398.38,1162.25 428.38,1142.12
             428.38,1142.12 483.12,1105.62 483.12,1105.62
             483.12,1105.62 496.75,1111.88 496.75,1111.88
             504.13,1115.25 515.75,1120.12 522.62,1122.62
             522.62,1122.62 534.88,1127.25 534.88,1127.25
             534.88,1127.25 548.25,1193.50 548.25,1193.50
             560.75,1256.50 561.75,1260.25 566.75,1270.38
             576.62,1290.38 595.62,1305.75 618.00,1311.88
             626.88,1314.38 630.38,1314.50 692.38,1314.50
             764.25,1314.50 765.62,1314.38 782.12,1306.50
             799.12,1298.50 812.12,1285.62 820.12,1268.62
             823.88,1260.88 826.25,1250.62 837.50,1194.88
             844.75,1159.25 851.00,1129.38 851.50,1128.50
             852.00,1127.62 858.00,1124.75 864.88,1122.12
             871.75,1119.50 883.13,1114.75 890.12,1111.50
             890.12,1111.50 903.00,1105.75 903.00,1105.75
             903.00,1105.75 957.62,1142.25 957.62,1142.25
             987.75,1162.25 1015.25,1179.88 1018.88,1181.50
             1022.38,1183.12 1028.88,1185.25 1033.25,1186.38
             1044.00,1189.25 1065.50,1188.38 1076.75,1184.75
             1093.50,1179.25 1098.62,1175.12 1142.13,1132.00
             1186.12,1088.50 1195.75,1077.75 1201.62,1065.38
             1211.50,1044.75 1211.88,1018.88 1202.62,998.00
             1200.88,994.12 1183.13,966.50 1163.00,936.50
             1163.00,936.50 1126.38,881.88 1126.38,881.88
             1126.38,881.88 1131.25,871.62 1131.25,871.62
             1133.88,866.00 1138.62,854.62 1141.88,846.38
             1145.12,838.12 1148.50,831.00 1149.38,830.50
             1150.38,830.00 1178.13,824.25 1211.12,817.62
             1244.12,811.00 1275.50,804.25 1280.88,802.50
             1304.25,794.75 1323.88,775.00 1332.13,750.75
             1334.75,742.88 1334.88,740.87 1335.25,676.25
             1335.63,601.00 1335.50,598.75 1326.62,581.00
             1319.50,566.38 1306.12,553.00 1291.38,545.75
             1281.25,540.75 1277.50,539.88 1214.75,527.25
             1178.38,520.00 1148.50,514.00 1148.25,513.75
             1148.00,513.62 1145.88,508.25 1143.50,501.88
             1141.12,495.37 1136.38,483.88 1132.88,476.25
             1132.88,476.25 1126.62,462.25 1126.62,462.25
             1126.62,462.25 1163.13,407.50 1163.13,407.50
             1183.25,377.25 1201.00,349.62 1202.62,345.87
             1210.12,329.12 1211.38,305.12 1205.63,288.25
             1199.38,270.00 1195.88,265.87 1146.25,216.75
             1120.25,191.12 1097.13,169.25 1093.62,167.12
             1072.25,154.12 1042.25,152.25 1019.50,162.62
             1015.63,164.37 987.75,182.25 957.75,202.25
             957.75,202.25 903.13,238.50 903.13,238.50
             903.13,238.50 888.38,232.00 888.38,232.00
             880.25,228.37 868.62,223.50 862.50,221.25
             856.50,219.00 851.38,217.00 851.25,216.75
             851.00,216.50 845.38,188.75 838.75,155.12
             832.12,121.38 825.12,89.50 823.38,84.12
             815.75,60.75 797.62,42.50 772.75,33.50
             772.75,33.50 763.62,30.12 763.62,30.12
             763.62,30.12 695.50,29.87 695.50,29.87
             631.62,29.62 626.75,29.75 618.25,32.00 Z
           M 760.62,176.25
           C 773.13,238.12 774.38,243.00 779.00,252.50
             784.75,264.12 795.50,276.62 805.88,283.75
             809.62,286.25 822.75,292.50 835.00,297.50
             847.25,302.62 862.25,308.75 868.25,311.25
             893.50,321.88 913.50,322.00 935.88,311.62
             940.88,309.25 967.62,292.25 995.50,273.62
             1023.38,255.12 1047.50,239.25 1049.12,238.37
             1052.00,236.75 1053.50,238.12 1090.00,274.62
             1110.88,295.50 1128.00,313.00 1128.00,313.50
             1128.00,314.00 1111.25,339.62 1090.75,370.37
             1047.13,435.87 1046.38,437.50 1046.25,461.38
             1046.25,477.62 1047.75,483.37 1057.62,505.75
             1061.50,514.38 1067.00,527.75 1069.88,535.37
             1077.00,554.12 1080.38,559.62 1091.75,570.87
             1099.00,578.12 1103.88,581.75 1112.00,585.62
             1122.00,590.62 1126.00,591.62 1188.75,604.25
             1188.75,604.25 1254.88,617.62 1254.88,617.62
             1254.88,617.62 1254.88,672.00 1254.88,672.00
             1254.88,672.00 1254.88,726.38 1254.88,726.38
             1254.88,726.38 1188.75,739.75 1188.75,739.75
             1127.00,752.12 1121.88,753.37 1112.38,758.12
             1100.12,764.12 1087.88,775.00 1080.63,786.12
             1077.75,790.62 1072.38,802.00 1068.75,811.50
             1065.00,821.12 1059.50,834.62 1056.38,841.50
             1047.62,860.87 1046.25,866.75 1046.25,882.62
             1046.50,906.75 1047.00,908.00 1090.63,973.37
             1111.12,1004.25 1128.00,1030.00 1128.00,1030.62
             1128.00,1031.88 1053.62,1106.12 1051.75,1106.75
             1051.12,1107.00 1027.12,1091.38 998.25,1072.12
             969.38,1052.88 942.50,1035.50 938.38,1033.38
             925.88,1027.12 917.00,1025.38 899.25,1026.00
             884.50,1026.50 883.00,1026.75 872.38,1031.25
             866.25,1033.88 850.25,1040.38 837.00,1045.88
             823.75,1051.25 809.88,1057.75 806.12,1060.25
             795.88,1067.00 784.88,1079.75 779.00,1091.50
             774.38,1101.00 773.13,1105.88 760.62,1167.75
             760.62,1167.75 747.38,1233.88 747.38,1233.88
             747.38,1233.88 693.00,1233.88 693.00,1233.88
             693.00,1233.88 638.62,1233.88 638.62,1233.88
             638.62,1233.88 626.62,1173.88 626.62,1173.88
             620.00,1140.88 613.88,1111.00 613.00,1107.62
             608.75,1090.00 594.88,1070.12 579.88,1060.25
             576.12,1057.75 562.25,1051.25 549.00,1045.88
             535.75,1040.38 519.88,1033.88 513.62,1031.25
             503.00,1026.75 501.50,1026.50 486.75,1026.00
             469.13,1025.38 460.12,1027.12 447.75,1033.38
             443.88,1035.38 416.88,1052.75 388.00,1072.00
             359.13,1091.25 335.12,1107.00 334.50,1107.00
             333.38,1107.00 258.00,1031.62 258.00,1030.38
             258.00,1029.88 273.88,1005.75 293.25,976.75
             312.50,947.62 330.38,919.88 332.75,914.88
             335.50,909.12 337.75,901.50 339.00,894.12
             341.75,877.62 339.63,864.25 330.62,843.75
             327.00,835.50 321.00,821.00 317.13,811.38
             313.38,801.88 308.00,790.50 305.25,786.12
             298.25,775.12 285.75,764.00 273.62,758.25
             262.38,752.88 259.50,752.12 184.88,737.12
             184.88,737.12 131.12,726.38 131.12,726.38
             131.12,726.38 131.12,672.00 131.12,672.00
             131.12,672.00 131.12,617.62 131.12,617.62
             131.12,617.62 197.25,604.25 197.25,604.25
             260.00,591.62 264.00,590.62 274.13,585.62
             282.38,581.62 287.13,578.12 294.38,570.87
             305.88,559.25 308.75,554.50 317.25,532.38
             321.00,522.87 326.25,510.12 329.13,504.00
             339.13,482.50 341.75,468.37 339.25,451.25
             336.50,433.25 333.38,427.50 294.50,369.25
             274.38,339.12 258.00,314.12 258.00,313.62
             258.00,312.37 333.25,237.00 334.50,237.00
             335.00,237.00 360.38,253.50 390.75,273.75
             448.00,311.75 454.38,315.25 471.00,318.25
             487.38,321.25 500.88,318.75 525.50,308.00
             533.38,304.62 546.88,299.00 555.50,295.62
             581.88,285.25 597.12,272.37 607.00,252.50
             611.62,243.00 612.88,238.12 625.00,177.50
             632.12,141.75 638.25,111.87 638.62,111.00
             639.00,109.75 650.62,109.50 693.25,109.75
             693.25,109.75 747.38,110.12 747.38,110.12
             747.38,110.12 760.62,176.25 760.62,176.25 Z" />
</svg>
