<?xml version="1.0" encoding="UTF-8" standalone="no"?>
<!DOCTYPE svg PUBLIC "-//W3C//DTD SVG 20010904//EN"
              "http://www.w3.org/TR/2001/REC-SVG-20010904/DTD/svg10.dtd">

<svg xmlns="http://www.w3.org/2000/svg"
     width="1.38889in" height="1.38889in"
     viewBox="0 0 125 125">
  <path id="Vetor importado"
        fill="none" stroke="black" stroke-width="1"
        d="M 38.62,89.50
           C 37.50,90.88 37.38,92.00 38.38,93.50
             39.50,95.38 42.75,95.62 62.25,96.00
             81.50,96.25 85.00,96.00 86.75,94.38
             88.25,92.75 88.38,91.75 87.50,89.88
             86.25,87.62 84.62,87.50 63.25,87.50
             43.88,87.50 40.00,87.75 38.62,89.50 Z
           M 38.62,77.00
           C 37.50,78.38 37.38,79.50 38.38,81.00
             39.50,82.88 42.75,83.12 62.88,83.50
             84.88,83.75 86.25,83.62 87.50,81.38
             88.38,79.50 88.25,78.50 86.75,77.00
             83.88,74.00 41.12,74.00 38.62,77.00 Z
           M 38.88,64.25
           C 37.75,65.62 37.62,66.75 38.75,68.75
             40.12,71.25 40.88,71.25 63.38,71.00
             83.50,70.62 86.75,70.38 87.88,68.50
             88.88,67.00 88.75,65.88 87.63,64.50
             85.25,61.62 41.12,61.50 38.88,64.25 Z
           M 27.62,29.50
           C 27.62,29.50 23.75,32.75 23.75,32.75
             23.75,32.75 23.75,69.12 23.75,69.12
             23.88,95.88 24.25,106.12 25.38,107.62
             28.75,112.12 31.88,112.50 63.63,112.50
             63.63,112.50 94.75,112.50 94.75,112.50
             94.75,112.50 98.62,109.25 98.62,109.25
             98.62,109.25 102.50,106.00 102.50,106.00
             102.50,106.00 102.50,69.50 102.50,69.50
             102.50,69.50 102.50,32.88 102.50,32.88
             102.50,32.88 99.25,29.87 99.25,29.87
             96.50,27.37 94.50,26.88 86.12,26.37
             86.12,26.37 76.25,26.00 76.25,26.00
             76.25,26.00 76.25,31.12 76.25,31.12
             76.25,31.12 76.25,36.25 76.25,36.25
             76.25,36.25 63.12,36.25 63.12,36.25
             63.12,36.25 50.00,36.25 50.00,36.25
             50.00,36.25 50.00,31.25 50.00,31.25
             50.00,31.25 50.00,26.25 50.00,26.25
             50.00,26.25 40.75,26.25 40.75,26.25
             32.50,26.25 31.00,26.62 27.62,29.50 Z
           M 41.25,37.25
           C 41.25,38.50 42.12,40.75 43.25,42.25
             45.00,44.87 46.00,45.00 63.12,45.00
             80.25,45.00 81.25,44.87 83.00,42.25
             84.12,40.75 85.00,38.38 85.00,37.12
             85.00,35.25 85.75,34.87 89.12,35.25
             89.12,35.25 93.12,35.62 93.12,35.62
             93.12,35.62 93.50,69.62 93.50,69.62
             93.50,69.62 93.75,103.75 93.75,103.75
             93.75,103.75 63.50,103.75 63.50,103.75
             63.50,103.75 33.12,103.75 33.12,103.75
             33.12,103.75 33.50,69.38 33.50,69.38
             33.50,69.38 33.88,35.00 33.88,35.00
             33.88,35.00 37.50,35.00 37.50,35.00
             40.25,35.00 41.25,35.62 41.25,37.25 Z
           M 52.75,3.25
           C 49.25,5.00 46.50,6.88 46.63,7.25
             46.75,7.75 45.62,9.75 44.25,11.62
             41.75,14.75 40.88,15.00 32.12,15.00
             20.88,15.00 17.88,16.12 14.12,21.88
             11.38,26.00 11.38,26.75 11.38,69.25
             11.38,107.50 11.50,112.88 13.38,116.12
             17.75,123.62 18.25,123.75 63.50,123.75
             103.88,123.75 104.75,123.75 108.12,121.00
             114.75,115.75 115.13,113.62 115.00,67.50
             115.00,67.50 114.88,25.00 114.88,25.00
             114.88,25.00 110.13,20.00 110.13,20.00
             110.13,20.00 105.38,15.00 105.38,15.00
             105.38,15.00 94.88,15.00 94.88,15.00
             85.38,15.00 84.12,14.75 82.50,12.12
             81.50,10.62 80.88,8.87 81.00,8.37
             81.12,7.75 80.75,7.62 80.13,8.00
             79.50,8.37 78.62,7.87 78.25,6.88
             77.25,4.25 67.88,0.00 63.00,0.00
             61.00,0.00 56.38,1.50 52.75,3.25 Z
           M 72.38,14.38
           C 74.50,16.88 76.25,20.00 76.25,21.25
             76.25,23.62 77.12,23.75 89.12,23.75
             97.50,23.75 102.50,24.25 103.50,25.25
             104.62,26.37 105.00,38.00 105.00,70.12
             105.00,108.50 104.75,113.62 103.00,114.25
             100.50,115.25 25.75,115.25 23.25,114.25
             21.50,113.62 21.25,108.50 21.25,70.12
             21.25,38.00 21.62,26.37 22.75,25.25
             23.75,24.25 28.63,23.75 36.62,23.75
             36.62,23.75 48.88,23.75 48.88,23.75
             48.88,23.75 50.62,19.38 50.62,19.38
             53.50,12.75 57.12,10.00 63.25,10.00
             67.62,10.00 69.12,10.62 72.38,14.38 Z" />
</svg>
